<svg width="129" height="31" viewBox="0 0 129 31" fill="none" xmlns="http://www.w3.org/2000/svg">
<path d="M0.272727 2.55682V0.90909H20.6562V2.55682H11.3523V30H9.5767V2.55682H0.272727ZM27.1264 30V0.90909H43.3196V2.55682H28.902V14.6165H42.4531V16.2642H28.902V28.3523H43.6605V30H27.1264ZM50.6811 0.90909H52.6129L63.8203 27.4432H64.0192L75.2266 0.90909H77.1584V30H75.4538V5.12784H75.2834L64.7578 30H63.0817L52.5561 5.12784H52.3857V30H50.6811V0.90909ZM85.5639 30V0.90909H94.527C96.3736 0.90909 97.955 1.28788 99.2713 2.04545C100.597 2.80303 101.615 3.83996 102.325 5.15625C103.036 6.47254 103.391 7.97348 103.391 9.65909C103.391 11.3258 103.036 12.8172 102.325 14.1335C101.615 15.4498 100.597 16.4915 99.2713 17.2585C97.955 18.0161 96.3783 18.3949 94.5412 18.3949H86.8139V16.7472H94.4986C95.9948 16.7472 97.2732 16.4441 98.3338 15.8381C99.3944 15.2225 100.209 14.3845 100.777 13.3239C101.345 12.2538 101.629 11.0322 101.629 9.65909C101.629 8.27652 101.345 7.05019 100.777 5.98011C100.209 4.91004 99.3897 4.07197 98.3196 3.46591C97.259 2.85985 95.9806 2.55682 94.4844 2.55682H87.3395V30H85.5639ZM125.894 8.18182C125.743 6.37311 125.004 4.91004 123.678 3.79261C122.362 2.67519 120.657 2.11648 118.565 2.11648C117.154 2.11648 115.899 2.37689 114.8 2.89773C113.702 3.41856 112.84 4.12879 112.215 5.02841C111.59 5.92803 111.278 6.96023 111.278 8.125C111.278 8.87311 111.42 9.55019 111.704 10.1562C111.997 10.7528 112.409 11.2879 112.94 11.7614C113.47 12.2254 114.1 12.6326 114.829 12.983C115.558 13.3333 116.363 13.6411 117.244 13.9062L120.425 14.8438C121.514 15.1752 122.518 15.5587 123.437 15.9943C124.365 16.4299 125.17 16.9508 125.852 17.5568C126.543 18.1534 127.078 18.8542 127.457 19.6591C127.845 20.464 128.039 21.392 128.039 22.4432C128.039 23.9773 127.641 25.3504 126.846 26.5625C126.06 27.7746 124.938 28.7311 123.479 29.4318C122.031 30.1231 120.321 30.4688 118.352 30.4688C116.477 30.4688 114.843 30.1515 113.451 29.517C112.068 28.8826 110.975 28.0019 110.17 26.875C109.365 25.7386 108.91 24.4318 108.806 22.9545H110.624C110.719 24.1572 111.103 25.1989 111.775 26.0795C112.457 26.9508 113.361 27.6231 114.488 28.0966C115.615 28.5701 116.903 28.8068 118.352 28.8068C119.914 28.8068 121.292 28.5417 122.485 28.0114C123.678 27.4716 124.611 26.7235 125.283 25.767C125.956 24.8106 126.292 23.6979 126.292 22.429C126.292 21.4062 126.05 20.5303 125.567 19.8011C125.085 19.072 124.37 18.4422 123.423 17.9119C122.485 17.3816 121.32 16.9081 119.928 16.4915L116.533 15.4688C114.261 14.7775 112.523 13.8352 111.32 12.642C110.127 11.4489 109.531 9.96212 109.531 8.18182C109.531 6.68561 109.928 5.35985 110.724 4.20455C111.519 3.03977 112.599 2.12595 113.962 1.46307C115.335 0.800189 116.884 0.46875 118.607 0.46875C120.34 0.46875 121.87 0.804924 123.195 1.47727C124.521 2.14015 125.572 3.05398 126.349 4.21875C127.125 5.37405 127.556 6.69508 127.641 8.18182H125.894Z" fill="url(#paint0_linear_126_1458)"/>
<defs>
<linearGradient id="paint0_linear_126_1458" x1="-2" y1="13.7368" x2="131" y2="13.7368" gradientUnits="userSpaceOnUse">
<stop stop-color="white"/>
<stop offset="1" stop-color="white" stop-opacity="0.5"/>
</linearGradient>
</defs>
</svg>
